<svg width="20" height="20" viewBox="0 0 20 20" fill="none" xmlns="http://www.w3.org/2000/svg">
<rect x="4.5" y="4.77246" width="11" height="13.1818" rx="0.5" stroke="#0C81E4" stroke-linejoin="round"/>
<path d="M6.77344 8.09086C6.77344 8.36701 6.9973 8.59086 7.27344 8.59086C7.54958 8.59086 7.77344 8.36701 7.77344 8.09086H6.77344ZM12.228 8.09086C12.228 8.36701 12.4518 8.59086 12.728 8.59086C13.0041 8.59086 13.228 8.36701 13.228 8.09086H12.228ZM7.77344 8.09086V2.54541H6.77344V8.09086H7.77344ZM8.27344 2.04541H11.728V1.04541H8.27344V2.04541ZM12.228 2.54541V8.09086H13.228V2.54541H12.228ZM11.728 2.04541C12.0041 2.04541 12.228 2.26927 12.228 2.54541H13.228C13.228 1.71698 12.5564 1.04541 11.728 1.04541V2.04541ZM7.77344 2.54541C7.77344 2.26927 7.99729 2.04541 8.27344 2.04541V1.04541C7.44501 1.04541 6.77344 1.71698 6.77344 2.54541H7.77344Z" fill="#0C81E4"/>
</svg>
