<svg width="76" height="76" viewBox="0 0 76 76" fill="none" xmlns="http://www.w3.org/2000/svg">
<g style="mix-blend-mode:screen">
<circle cx="38.2405" cy="37.6216" r="36.6216" stroke="white" stroke-width="2"/>
<path d="M14.2991 64.9828C14.8902 64.4027 16.6045 63.0687 18.7326 62.3727C21.3927 61.5026 28.4863 59.7625 30.2598 55.4124C31.6785 51.9322 31.442 48.7421 31.1465 47.582C30.2598 46.712 28.1317 44.9719 26.7129 41.4918C25.2942 38.0116 24.9395 31.9213 24.9395 29.3112C24.9395 24.671 27.5996 15.3906 38.2401 15.3906C48.8806 15.3906 51.5407 24.671 51.5407 29.3112C51.5407 32.2114 51.186 38.7076 49.7673 41.4918C48.2155 44.5369 46.2204 46.712 45.3337 47.582C45.0382 49.0321 45.6884 52.6282 47.1071 55.4124C48.8806 58.8925 56.8609 60.6326 59.521 62.3727C61.6491 63.7647 62.1811 63.8377 62.1811 64.1277" stroke="white" stroke-width="2" stroke-linejoin="round"/>
</g>
</svg>
