<svg width="75" height="75" viewBox="0 0 75 75" fill="none" xmlns="http://www.w3.org/2000/svg">
<g style="mix-blend-mode:screen" clip-path="url(#clip0_340_230)">
<path d="M21.2804 68.2256L20.5253 68.4541L19.9445 66.4609C19.6158 66.6586 19.2569 66.8032 18.8816 66.8892C18.5484 66.9672 18.2076 67.0093 17.8652 67.0148L17.6968 66.2381C18.0069 66.2562 18.3181 66.2292 18.6203 66.1582C18.8863 66.0931 19.1422 65.9932 19.3811 65.8612C19.5955 65.7455 19.7912 65.5993 19.9619 65.4272C20.1245 65.2704 20.2634 65.0915 20.3743 64.896L20.8796 63.9937L21.6114 64.3934L21.1758 65.1644C21.0964 65.3104 21.0051 65.4498 20.9028 65.5813C20.8041 65.707 20.7054 65.8269 20.6066 65.9354L21.2804 68.2256ZM21.5475 71.2639L20.8564 70.887L22.8021 67.4603L21.3559 66.6722L21.7276 66.0154L23.168 66.8035L24.1554 65.0559L24.8523 65.4386L21.5475 71.2639Z" fill="white"/>
<path d="M31.4855 71.229L28.7383 70.5322L28.6453 70.892L30.0102 71.2347L29.5688 72.9081L26.9436 72.2399L26.8565 72.5597L29.6618 73.2736L29.4701 73.9989L25.8749 73.0851L26.3279 71.3718L28.9474 72.0343L29.0229 71.7544L26.3628 71.0805L26.5486 70.378L27.8729 70.715L27.9658 70.3609L25.2825 69.6812L25.4683 68.9674L31.6714 70.5436L31.4855 71.229ZM30.6375 68.5733C30.5885 68.7678 30.4929 68.948 30.3587 69.0987C30.2244 69.2426 30.0626 69.3591 29.8825 69.4414C29.6869 69.5229 29.4788 69.5712 29.2668 69.5842C29.0282 69.5925 28.7897 69.5675 28.5582 69.5099C28.3358 69.4517 28.1227 69.3633 27.9251 69.2472C27.7427 69.1416 27.5813 69.0042 27.4489 68.8417C27.3267 68.6872 27.2413 68.5076 27.1991 68.3163C27.1473 68.1177 27.1473 67.9095 27.1991 67.7109C27.2431 67.501 27.3388 67.3048 27.4779 67.1398C27.6086 66.9891 27.7711 66.8682 27.9542 66.7857C28.1485 66.6996 28.3571 66.6493 28.5698 66.6372C28.8047 66.6264 29.0398 66.6514 29.2668 66.7115C29.4953 66.7655 29.7131 66.8562 29.9115 66.9799C30.0934 67.0911 30.2529 67.2344 30.382 67.4025C30.5038 67.5601 30.5909 67.741 30.6375 67.9336C30.6839 68.1458 30.6739 68.3661 30.6085 68.5733H30.6375ZM29.8418 68.362C29.8689 68.2633 29.8709 68.1596 29.8476 68.06C29.8243 67.9604 29.7765 67.868 29.7082 67.7909C29.5475 67.6156 29.3382 67.4903 29.106 67.4304C28.8738 67.3706 28.6289 67.3787 28.4014 67.4539C28.3003 67.4914 28.2104 67.5535 28.1404 67.6344C28.0703 67.7153 28.0222 67.8124 28.0007 67.9165C27.9722 68.0147 27.969 68.1182 27.9913 68.2179C28.0136 68.3176 28.0607 68.4103 28.1284 68.4876C28.2901 68.6631 28.5032 68.7848 28.7383 68.836C28.9638 68.9019 29.2039 68.9019 29.4294 68.836C29.5321 68.8003 29.6225 68.7369 29.6903 68.6531C29.7581 68.5693 29.8005 68.4684 29.8128 68.362H29.8418Z" fill="white"/>
<path d="M39.779 71.9435H33.3901V71.201H39.779V71.9435ZM38.3909 74.6392H37.5894V73.1029H34.726V72.3547H38.3909V74.6392ZM38.3909 70.8184H34.7725V67.9229H38.3502V68.6653H35.5507V68.9794H38.2399V69.7333H35.5507V70.0759H38.3735L38.3909 70.8184Z" fill="white"/>
<path d="M44.8436 70.3557L41.8641 70.9611L41.2368 67.9685L42.0151 67.8086L42.1951 68.6709L43.6123 68.3854L43.4323 67.523L44.2164 67.3631L44.8436 70.3557ZM43.9085 69.7846L43.7691 69.105L42.3462 69.3962L42.4914 70.0759L43.9085 69.7846ZM47.7709 73.3541L44.1757 74.0851L43.7982 72.2747L46.4118 71.7493L46.3363 71.3723L43.682 71.9091L43.531 71.1838L47.0158 70.4814L47.3934 72.2861L44.7972 72.8172L44.8727 73.1884L47.6489 72.6173L47.7709 73.3541ZM47.1901 70.2244L46.4176 70.3786L46.2724 69.6818L45.0121 69.9388L44.8611 69.2192L46.1214 68.9622L46.0111 68.4425L44.7565 68.6995L44.5997 67.9742L45.86 67.7172L45.6452 66.7006L46.4176 66.5464L47.1901 70.2244Z" fill="white"/>
<path d="M53.3412 68.2427L53.0798 68.9737L51.0877 68.2598C51.0671 68.6401 50.9765 69.0135 50.8205 69.362C50.6858 69.6739 50.5142 69.9691 50.3094 70.2416L49.5718 69.916C49.7675 69.6725 49.9277 69.4034 50.048 69.1165C50.1533 68.8693 50.2274 68.6104 50.2687 68.3455C50.298 68.1084 50.298 67.8687 50.2687 67.6316C50.2323 67.4132 50.1679 67.2002 50.0771 66.9977L49.6298 66.0439L50.3907 65.7012L50.774 66.5236C50.8466 66.6728 50.9068 66.8275 50.9541 66.9862C50.9965 67.129 51.0314 67.2739 51.0586 67.4203L53.3412 68.2427ZM55.8793 69.8475L55.1533 70.1788L52.319 64.0964L53.045 63.7651L55.8793 69.8475Z" fill="white"/>
<path d="M7.45151 52.2387C7.61969 52.1253 7.81402 52.0549 8.01686 52.0339C8.21971 52.013 8.42465 52.0421 8.61313 52.1188C9.04003 52.3333 9.38898 52.6724 9.61212 53.0897C9.66439 53.1868 9.71667 53.2839 9.76314 53.381C9.8096 53.478 9.85026 53.5809 9.89091 53.6837C9.93157 53.7865 9.9606 53.8892 9.98964 53.992C10.0187 54.0948 10.0477 54.1862 10.071 54.2776L9.44949 54.6374C9.44949 54.5803 9.4495 54.5118 9.42046 54.4261C9.4052 54.3259 9.38386 54.2268 9.35656 54.1291C9.32171 54.0149 9.28106 53.8949 9.22878 53.7693C9.17333 53.6257 9.10328 53.4879 9.0197 53.3581C8.95815 53.2524 8.88617 53.153 8.80481 53.0611C8.72985 52.975 8.63924 52.9034 8.53762 52.8498C8.44069 52.7941 8.33045 52.7648 8.21818 52.7648C8.10592 52.7648 7.99567 52.7941 7.89875 52.8498C7.79715 52.9064 7.71134 52.9869 7.64899 53.084C7.59728 53.1718 7.56373 53.2689 7.55026 53.3695C7.53855 53.4758 7.53855 53.583 7.55026 53.6893C7.55026 53.7979 7.55026 53.9007 7.55026 54.0092C7.55026 54.1177 7.5851 54.3575 7.60253 54.5803C7.61637 54.7704 7.61637 54.9613 7.60253 55.1514C7.58166 55.3309 7.53268 55.5063 7.45733 55.6711C7.37913 55.8347 7.25129 55.9703 7.09141 56.0595C6.9359 56.1671 6.75487 56.2336 6.56569 56.2526C6.37652 56.2716 6.18555 56.2425 6.01112 56.168C5.64079 55.9842 5.33671 55.6932 5.13991 55.3341C5.08073 55.2369 5.02833 55.1357 4.98308 55.0315C4.93661 54.9287 4.89596 54.8259 4.86111 54.7231L4.77399 54.4261L4.69849 54.1748L5.32575 53.8093C5.34358 53.991 5.37859 54.1708 5.43031 54.3461C5.4994 54.5905 5.59684 54.8262 5.72071 55.0486C5.81476 55.2226 5.96067 55.3641 6.13888 55.4541C6.21827 55.4905 6.30577 55.5064 6.39314 55.5004C6.48051 55.4944 6.5649 55.4667 6.63838 55.4198C6.71203 55.3759 6.7738 55.3152 6.81843 55.2428C6.85453 55.171 6.87809 55.0938 6.88813 55.0143C6.89706 54.9251 6.89706 54.8352 6.88813 54.7459V54.4375L6.83004 53.8664C6.83004 53.735 6.83004 53.6037 6.83004 53.4609C6.81264 53.3148 6.81264 53.1672 6.83004 53.0211C6.86197 52.8514 6.93028 52.6903 7.03042 52.5485C7.13056 52.4067 7.26024 52.2875 7.41085 52.1987L7.45151 52.2387Z" fill="white"/>
<path d="M6.81314 47.5552L7.9167 50.1423L3.42704 51.9927L2.35254 49.457L2.93335 49.2114L3.72326 51.0561L4.96618 50.5478L4.20532 48.7717L4.78613 48.5261L5.54117 50.2965L6.9874 49.7254L6.17427 47.8179L6.81314 47.5552Z" fill="white"/>
<path d="M2.93282 42.6657C3.24964 42.5869 3.57616 42.5523 3.90278 42.5629C4.20338 42.5704 4.49948 42.6364 4.77399 42.7571C5.04688 42.8756 5.28614 43.058 5.47095 43.2882C5.67306 43.5547 5.81925 43.8581 5.90101 44.1807C5.98277 44.5032 5.99849 44.8386 5.94722 45.1672C5.8922 45.4531 5.77098 45.7228 5.59293 45.9553C5.40786 46.1866 5.17909 46.3805 4.91919 46.5264C4.6268 46.6915 4.31191 46.8146 3.98408 46.892C3.67241 46.9654 3.35161 46.9942 3.03157 46.9776C2.72792 46.9603 2.43034 46.8867 2.15454 46.7606C1.88503 46.634 1.64709 46.4508 1.45756 46.2238C1.25777 45.964 1.11361 45.6671 1.03375 45.3511C0.953885 45.035 0.939994 44.7063 0.992925 44.3848C1.04545 44.098 1.16691 43.8278 1.34721 43.5966C1.52971 43.3651 1.75666 43.1711 2.01515 43.0255C2.30212 42.8633 2.61111 42.7422 2.93282 42.6657ZM3.10126 43.3739C2.86495 43.4294 2.63664 43.5138 2.42171 43.6252C2.22842 43.7299 2.05383 43.8649 1.9048 44.025C1.77251 44.1813 1.67727 44.3647 1.626 44.5618C1.56792 44.7789 1.56792 45.0072 1.626 45.2243C1.66899 45.4357 1.76705 45.6325 1.91059 45.7954C2.04451 45.9462 2.21129 46.0652 2.39849 46.1438C2.6041 46.2325 2.82467 46.2829 3.04899 46.2923C3.30326 46.301 3.55748 46.274 3.80403 46.2123C4.0394 46.1564 4.26743 46.074 4.48359 45.9668C4.68477 45.8689 4.86438 45.7331 5.01213 45.567C5.1542 45.4129 5.25938 45.2294 5.31995 45.0301C5.38093 44.8095 5.38093 44.5768 5.31995 44.3562C5.2698 44.145 5.16814 43.949 5.02374 43.7851C4.88635 43.6292 4.71312 43.5078 4.51844 43.431C4.30836 43.354 4.08629 43.3135 3.86212 43.3111C3.60687 43.3025 3.35148 43.3235 3.10126 43.3739Z" fill="white"/>
<path d="M3.02592 37.1597C3.23974 37.1483 3.45419 37.1617 3.66481 37.1997C3.88943 37.2394 4.10429 37.3208 4.29789 37.4396C4.50667 37.567 4.68182 37.7411 4.809 37.9479C4.9582 38.2083 5.04184 38.5001 5.05293 38.7989C5.0842 39.103 5.04243 39.4101 4.93097 39.6955C4.84035 39.9177 4.69458 40.114 4.50697 40.2666C4.33512 40.4048 4.13798 40.5095 3.92616 40.575C3.71551 40.6324 3.49953 40.6687 3.28148 40.6835L0.255468 40.8834L0.208993 40.141L3.21758 39.9411C3.374 39.9299 3.52935 39.9069 3.68223 39.8725C3.82445 39.8367 3.95846 39.7747 4.07718 39.6898C4.19637 39.6075 4.2907 39.495 4.35016 39.3643C4.42052 39.2064 4.44659 39.0328 4.42567 38.8617C4.42171 38.6927 4.37372 38.5275 4.28628 38.3819C4.20748 38.2596 4.0999 38.1578 3.97264 38.085C3.84107 38.013 3.69748 37.9646 3.54864 37.9422C3.39231 37.925 3.23452 37.925 3.07819 37.9422L0.0696046 38.1421L0.017334 37.3996L3.02592 37.1597Z" fill="white"/>
<path d="M5.14053 32.2824L4.9024 35.1394L0.0700684 34.7509L0.122339 34.0366L4.31578 34.3737L4.49001 32.231L5.14053 32.2824Z" fill="white"/>
<path d="M7.63134 23.6464L7.39902 24.2861L3.83866 23.0125L6.96341 25.4568L6.73109 26.0908L2.74094 25.988L6.29548 27.2616L6.05735 27.8955L1.49219 26.2678L1.84068 25.3198L5.96442 25.4454L2.7177 22.9497L3.06619 22.0073L7.63134 23.6464Z" fill="white"/>
<path d="M9.92626 19.5449L8.5207 21.9779L4.28662 19.6078L5.66893 17.2319L6.24974 17.546L5.23914 19.2594L6.40075 19.9162L7.37071 18.2428L7.95152 18.5569L6.98156 20.2303L8.34647 20.9956L9.38612 19.1966L9.92626 19.5449Z" fill="white"/>
<path d="M9.30999 13.4047L8.48523 14.4669L11.8365 16.9913L11.3835 17.5624L8.03221 15.0323L7.20747 16.0832L6.70215 15.7006L8.79888 13.0049L9.30999 13.4047Z" fill="white"/>
<path d="M15.966 12.6173L15.4142 13.1427L14.6243 12.623C14.4154 12.4789 14.181 12.3743 13.9331 12.3146C13.7453 12.2488 13.5402 12.2488 13.3523 12.3146C13.3263 12.3477 13.2972 12.3783 13.2652 12.406L13.1839 12.4859L12.8993 12.7543L12.4463 12.3032L12.7251 12.0347C12.8146 11.947 12.898 11.8536 12.9748 11.7549C13.0472 11.6619 13.0986 11.5548 13.1258 11.4408C13.1579 11.3346 13.1579 11.2215 13.1258 11.1153C13.0839 10.9824 13.0079 10.8625 12.9051 10.7669C12.8166 10.6716 12.7014 10.604 12.5741 10.5727C12.4597 10.5442 12.3399 10.5442 12.2256 10.5727C12.1048 10.6038 11.9907 10.656 11.8887 10.7269C11.7786 10.7992 11.6756 10.8814 11.5809 10.9725L11.1801 11.3551L14.1306 14.3249L13.6079 14.8275L10.2043 11.4008L11.1278 10.5099C11.292 10.355 11.4687 10.2137 11.6564 10.0873C11.8355 9.97292 12.0314 9.88625 12.2372 9.83025C12.4375 9.78185 12.6467 9.78185 12.847 9.83025C13.0908 9.91178 13.3102 10.0515 13.4856 10.2369C13.6609 10.4223 13.7868 10.6475 13.8518 10.8925C13.8881 11.1166 13.8681 11.346 13.7938 11.5607C13.9892 11.5514 14.1849 11.5706 14.3746 11.6178C14.5967 11.6636 14.8066 11.7551 14.9902 11.8862L15.966 12.6173Z" fill="white"/>
<path d="M19.2134 7.28264C19.4002 7.54463 19.5488 7.8311 19.6548 8.13362C19.7567 8.41171 19.804 8.70626 19.7942 9.00169C19.7766 9.29292 19.6912 9.57627 19.5444 9.82982C19.3665 10.1241 19.122 10.3743 18.83 10.5609C18.5631 10.7545 18.2555 10.8872 17.9298 10.9492C17.6404 11.0012 17.3429 10.9895 17.0586 10.9149C16.7666 10.8308 16.4943 10.6911 16.2571 10.5037C15.9928 10.2995 15.7617 10.0568 15.5717 9.78412C15.3863 9.52507 15.2414 9.24017 15.1419 8.93888C15.0485 8.65529 15.0111 8.35678 15.0316 8.05938C15.0504 7.76581 15.1379 7.48047 15.2871 7.22554C15.4538 6.94205 15.6843 6.69982 15.9608 6.51736C16.2293 6.32625 16.5363 6.19383 16.8611 6.12901C17.1529 6.07917 17.4523 6.09282 17.7381 6.16899C18.0276 6.25209 18.2979 6.38979 18.5338 6.57446C18.796 6.77483 19.0252 7.01368 19.2134 7.28264ZM18.6035 7.69386C18.4673 7.507 18.3072 7.3381 18.1273 7.19127C17.9542 7.04925 17.7578 6.93722 17.5465 6.86002C17.3501 6.79628 17.1421 6.77486 16.9366 6.7972C16.7114 6.8251 16.4974 6.90968 16.3151 7.04278C16.1361 7.15898 15.9901 7.31821 15.8912 7.50538C15.7987 7.68284 15.7453 7.87742 15.7343 8.07649C15.728 8.29754 15.7614 8.51795 15.8331 8.72757C15.9154 8.96229 16.0329 9.18366 16.1816 9.38437C16.3171 9.58369 16.4793 9.76424 16.6636 9.92122C16.8339 10.0699 17.0309 10.1861 17.2444 10.2639C17.4421 10.339 17.6552 10.3665 17.8659 10.3438C18.0958 10.3206 18.3149 10.2357 18.499 10.0983C18.6873 9.97853 18.8413 9.81336 18.9462 9.61851C19.0396 9.44172 19.0912 9.24651 19.0972 9.04739C19.0954 8.82637 19.0521 8.60757 18.9694 8.40203C18.8831 8.14975 18.7598 7.9112 18.6035 7.69386Z" fill="white"/>
<path d="M23.4243 4.11789C23.542 4.33538 23.5982 4.57994 23.5869 4.82606C23.5704 5.02794 23.5068 5.22336 23.4011 5.39718C23.294 5.57695 23.1519 5.73416 22.9829 5.85978C22.8157 5.98932 22.6346 6.10042 22.4427 6.19103L22.0826 6.35664L21.798 5.78553L22.1523 5.6142C22.2671 5.56254 22.376 5.49937 22.4776 5.42573C22.575 5.35676 22.6595 5.27174 22.7273 5.17443C22.7852 5.0748 22.819 4.96345 22.8261 4.84893C22.8285 4.71024 22.7966 4.57304 22.7331 4.44914C22.6803 4.33007 22.591 4.23022 22.4776 4.16359C22.3743 4.10464 22.2595 4.06767 22.1407 4.05507C22.0119 4.04371 21.882 4.05532 21.7574 4.08934C21.6286 4.11848 21.5038 4.16257 21.3857 4.22068L20.8804 4.46054L22.7041 8.19565L22.0478 8.50976L19.9395 4.19213L21.1011 3.62102C21.304 3.52466 21.516 3.44813 21.7341 3.39256C21.942 3.33672 22.1587 3.31931 22.373 3.34118C22.5817 3.36206 22.7816 3.43477 22.9539 3.55249C23.1621 3.69319 23.3253 3.8893 23.4243 4.11789Z" fill="white"/>
<path d="M29.5632 3.19264C29.6566 3.5004 29.7055 3.81953 29.7084 4.14067C29.717 4.43465 29.6676 4.72747 29.5632 5.00306C29.4509 5.27482 29.2759 5.51724 29.0521 5.71124C28.7906 5.93483 28.4808 6.09695 28.1461 6.18527C27.8282 6.27935 27.4942 6.30852 27.1645 6.27095C26.8718 6.22869 26.5921 6.12336 26.3456 5.96253C26.0971 5.79032 25.8843 5.57325 25.7183 5.32289C25.5361 5.04594 25.397 4.7437 25.3059 4.42623C25.2136 4.12439 25.1686 3.81052 25.1723 3.49535C25.1751 3.19601 25.2342 2.89974 25.3466 2.62153C25.4632 2.35211 25.6376 2.11058 25.8577 1.91335C26.1094 1.69723 26.4071 1.53918 26.7289 1.45075C27.0445 1.35519 27.3773 1.3279 27.7047 1.37078C27.9977 1.40845 28.2779 1.51205 28.5236 1.67349C28.7701 1.84373 28.9811 2.05893 29.1451 2.30742C29.3314 2.57875 29.4726 2.87757 29.5632 3.19264ZM28.8547 3.39252C28.7857 3.16174 28.6861 2.94093 28.5584 2.73576C28.4452 2.5488 28.2998 2.38262 28.1286 2.24461C27.9572 2.11197 27.755 2.02322 27.5401 1.98634C27.3252 1.94946 27.1043 1.96557 26.8973 2.03326C26.6939 2.09115 26.507 2.1948 26.3514 2.33597C26.2059 2.47838 26.093 2.64974 26.0203 2.83855C25.9422 3.045 25.9029 3.26366 25.9042 3.48391C25.9047 3.73386 25.9439 3.98226 26.0203 4.22064C26.0864 4.45057 26.182 4.6713 26.3049 4.87743C26.4142 5.06877 26.5578 5.23906 26.7289 5.38002C26.8983 5.51324 27.0973 5.6052 27.3097 5.64843C27.5351 5.69908 27.7703 5.68722 27.9893 5.61416C28.2061 5.55482 28.4053 5.44514 28.5701 5.29434C28.7183 5.14968 28.8315 4.974 28.9011 4.78035C28.9721 4.5707 29.0036 4.35005 28.994 4.12928C28.9793 3.87144 28.9325 3.61634 28.8547 3.36968V3.39252Z" fill="white"/>
<path d="M34.7668 4.8202L31.8628 5.20288L31.2239 0.474033L31.9673 0.376953L32.5481 4.47183L34.7087 4.18628L34.7668 4.8202Z" fill="white"/>
<path d="M36.9566 4.78594H36.1957L36.0796 0H36.8463L36.9566 4.78594Z" fill="white"/>
<path d="M42.2946 0.936433L40.9355 0.822203L40.5638 4.9571L39.8261 4.89425L40.1979 0.759389L38.8562 0.639477L38.9143 0.0112305L42.3527 0.308221L42.2946 0.936433Z" fill="white"/>
<path d="M46.9176 6.12826L46.1219 5.93978L45.9709 4.46058L44.3272 4.07794L43.4792 5.31725L42.7532 5.15164L45.5759 0.891113L46.3426 1.07387L46.9176 6.12826ZM45.907 3.79238L45.7792 1.82203H45.7502L44.6815 3.50683L45.907 3.79238Z" fill="white"/>
<path d="M51.4076 7.90424L50.6061 7.57298L50.3273 3.44956L48.8753 6.87624L48.2131 6.60208L50.0717 2.16455L50.8965 2.50149L51.1578 6.63638L52.6157 3.2097L53.2778 3.48382L51.4076 7.90424Z" fill="white"/>
<path d="M60.7406 9.99479L60.1598 9.53219C60.2592 9.41652 60.3342 9.28256 60.3805 9.13812C60.4091 9.02369 60.4091 8.90418 60.3805 8.78975C60.3532 8.68132 60.306 8.57875 60.2411 8.48708C60.171 8.39529 60.0912 8.31106 60.003 8.23578C59.8469 8.11274 59.664 8.02674 59.4686 7.98449C59.2776 7.94065 59.0789 7.94065 58.8878 7.98449C58.6788 8.03154 58.4814 8.1189 58.307 8.2415C58.0839 8.3845 57.8874 8.56416 57.7262 8.77263C57.6128 8.92133 57.5137 9.07999 57.43 9.24663C57.3243 9.44634 57.2554 9.66291 57.2267 9.88628C57.1926 10.1225 57.2165 10.3634 57.2964 10.5888C57.3967 10.8668 57.5812 11.1079 57.8249 11.2798C57.9294 11.3632 58.0423 11.436 58.1618 11.4968C58.2684 11.5579 58.3814 11.6077 58.4987 11.6453L59.2944 10.6345L58.3767 9.93198L58.7833 9.41799L60.2934 10.5602L58.8356 12.3992L58.6903 12.3192L58.458 12.2621C58.357 12.2345 58.2581 12.2001 58.1618 12.1593C58.0334 12.1055 57.9092 12.0425 57.7901 11.9709C57.6347 11.8821 57.4871 11.7809 57.3487 11.6682C57.0779 11.4789 56.8581 11.2276 56.7084 10.9361C56.5586 10.6445 56.4833 10.3214 56.4891 9.99479C56.4959 9.68737 56.5588 9.38368 56.6749 9.09817C56.7945 8.80736 56.9548 8.53438 57.1512 8.28717C57.3413 8.04664 57.5663 7.83497 57.8191 7.65895C58.062 7.49116 58.3365 7.37273 58.6265 7.31058C58.9156 7.25064 59.2143 7.25064 59.5035 7.31058C59.8326 7.38769 60.1402 7.53593 60.4037 7.7446C60.5775 7.87605 60.7285 8.03419 60.851 8.21292C60.9677 8.3867 61.0505 8.58039 61.0949 8.78403C61.1412 8.98326 61.1412 9.19018 61.0949 9.38941C61.0266 9.61569 60.9053 9.82305 60.7406 9.99479Z" fill="white"/>
<path d="M64.5917 15.1869C64.3568 15.4151 64.0886 15.6076 63.796 15.758C63.5288 15.8951 63.2366 15.9786 62.9363 16.0036C62.6409 16.0257 62.3444 15.9787 62.0709 15.8665C61.7538 15.7403 61.4698 15.545 61.2404 15.2954C61.0092 15.0614 60.8362 14.778 60.7351 14.4673C60.641 14.1917 60.6151 13.898 60.6596 13.6106C60.7069 13.3167 60.8093 13.034 60.9616 12.7768C61.138 12.4943 61.3552 12.2384 61.6063 12.0172C61.8426 11.803 62.111 11.6258 62.402 11.4918C62.6752 11.3634 62.971 11.2877 63.2732 11.269C63.5703 11.252 63.8676 11.2988 64.1444 11.4061C64.4533 11.5324 64.7278 11.728 64.9459 11.9772C65.1744 12.2133 65.347 12.496 65.4513 12.8053C65.5424 13.0815 65.5682 13.3745 65.5268 13.662C65.4829 13.955 65.3803 14.2365 65.2247 14.4901C65.0499 14.7519 64.8365 14.9866 64.5917 15.1869ZM64.1038 14.6443C64.2859 14.4755 64.4441 14.2834 64.5742 14.0732C64.6943 13.8998 64.7809 13.7062 64.8298 13.5021C64.879 13.3051 64.879 13.0994 64.8298 12.9024C64.7728 12.6878 64.6609 12.4912 64.5045 12.3313C64.3624 12.1744 64.1827 12.0547 63.9818 11.9829C63.7969 11.9134 63.5983 11.886 63.401 11.903C63.1764 11.9238 62.9577 11.9858 62.7563 12.0857C62.5307 12.196 62.3216 12.3363 62.1348 12.5026C61.9539 12.674 61.794 12.8657 61.6586 13.0737C61.5332 13.2463 61.4407 13.4398 61.3856 13.6449C61.3392 13.846 61.3392 14.0548 61.3856 14.256C61.4418 14.4708 61.5539 14.6677 61.7109 14.8271C61.8578 14.9957 62.0456 15.1254 62.2568 15.204C62.4554 15.2753 62.6685 15.2988 62.8783 15.2726C63.0997 15.2436 63.3142 15.1759 63.5114 15.0726C63.7184 14.9555 63.9113 14.8156 64.0864 14.6557L64.1038 14.6443Z" fill="white"/>
<path d="M69.7546 18.4886L64.748 19.688L64.3066 19.0198L67.4662 15.022L67.9018 15.6787L65.294 18.8541L65.3289 18.8941L69.3306 17.8604L69.7546 18.4886Z" fill="white"/>
<path d="M67.449 24.8164L66.2874 22.2692L70.7131 20.2817L71.8747 22.7718L71.2939 23.0345L70.3995 21.2127L69.174 21.7838L69.9871 23.5371L69.4063 23.7998L68.599 22.0408L67.1702 22.6804L68.0414 24.5651L67.449 24.8164Z" fill="white"/>
<path d="M68.9246 29.4665L68.7155 28.7469L69.5577 28.3015C69.7764 28.1853 69.973 28.0326 70.1385 27.8503C70.2786 27.7072 70.3665 27.5224 70.3882 27.3248C70.3687 27.2891 70.355 27.2505 70.3476 27.2106L70.3127 27.0964L70.2024 26.7252L70.8296 26.5481L70.9342 26.9137C70.9691 27.035 71.0138 27.1534 71.0678 27.2677C71.1177 27.3722 71.1889 27.4655 71.2769 27.5419C71.3539 27.6242 71.4556 27.6802 71.5673 27.7018C71.7043 27.7374 71.8484 27.7374 71.9855 27.7018C72.1116 27.6714 72.2251 27.6036 72.3107 27.5076C72.3905 27.4214 72.4429 27.3143 72.4617 27.1992C72.4825 27.0782 72.4825 26.9547 72.4617 26.8337C72.4512 26.7038 72.4259 26.5754 72.3862 26.451L72.2294 25.9199L68.1637 27.0621L67.9604 26.3711L72.6418 25.0347L73.0019 26.2626C73.065 26.4771 73.1078 26.697 73.1297 26.9193C73.15 27.1279 73.1343 27.3384 73.0832 27.5419C73.0365 27.7413 72.9362 27.9247 72.7928 28.073C72.6208 28.2444 72.4036 28.365 72.1655 28.4214C71.9074 28.5067 71.6279 28.5067 71.3698 28.4214C71.1471 28.3545 70.9465 28.2303 70.789 28.0616C70.7022 28.2281 70.5949 28.3834 70.4695 28.5242C70.3217 28.6917 70.1422 28.8294 69.941 28.9297L68.9246 29.4665Z" fill="white"/>
<path d="M69.6852 34.4354L69.5806 33.5844L73.0655 31.2999L69.3425 31.7511L69.2554 31.0487L74.0819 30.4775L74.1922 31.3456L70.6725 33.6301L74.4246 33.1789L74.5117 33.8756L69.6852 34.4354Z" fill="white"/>
<path d="M69.5286 40.8435L69.5692 40.1696L73.3445 40.3866L69.6447 38.9189L69.6854 38.245L73.5361 37.2227L69.7609 36.9999L69.819 36.3203L74.6687 36.6059L74.6106 37.611L70.6031 38.6048V38.6333L74.4364 40.1182L74.3783 41.112L69.5286 40.8435Z" fill="white"/>
<path d="M68.5183 45.4248L69.163 42.6948L73.9024 43.7857L73.2693 46.4528L72.6362 46.3043L73.1009 44.3511L71.7883 44.0541L71.3468 45.9216L70.7138 45.7789L71.1552 43.9056L69.6277 43.5572L69.1456 45.5733L68.5183 45.4248Z" fill="white"/>
<path d="M66.729 50.142L67.0543 49.3482L71.2419 49.0169L67.757 47.6348L68.0242 46.978L72.5371 48.7713L72.2002 49.5823L68.001 49.8907L71.4858 51.2785L71.2187 51.9296L66.729 50.142Z" fill="white"/>
<path d="M67.9659 56.4133L68.6571 55.2711L65.0212 53.158L65.3988 52.5298L69.0346 54.6429L69.72 53.5007L70.2717 53.8205L68.5293 56.7446L67.9659 56.4133Z" fill="white"/>
<path d="M39.7913 21.3557C39.8915 21.4699 39.9649 21.6045 40.0062 21.7497C40.134 22.1381 40.5057 22.378 40.5522 22.7777C40.5522 22.9148 40.7438 22.9662 40.8368 23.0233C40.9297 23.0804 40.8368 23.2918 41.0575 23.4802C41.1504 23.5373 41.0575 23.6801 41.0981 23.8115L41.3769 23.9885C41.8044 24.5975 42.0285 25.3223 42.0181 26.0622C42.0077 26.8021 41.7633 27.5205 41.3188 28.1177C41.1558 28.2784 41.0326 28.4738 40.9587 28.6888C40.8774 28.7688 40.7206 28.8487 40.6393 28.9229C40.6393 29.06 40.7496 29.1171 40.8484 29.2428C40.4302 29.3513 40.3837 29.6882 40.0643 29.9281H39.7274C39.5046 30.11 39.2632 30.2689 39.0072 30.4021C38.9317 30.4764 38.9549 30.6763 38.9608 30.7448C38.5048 31.072 37.951 31.2408 37.3868 31.2245C37.2996 31.2245 37.2358 31.4415 37.1544 31.453C36.7305 31.4929 36.2135 31.453 35.7895 31.5101C35.6095 31.4587 35.5108 31.333 35.3307 31.2759C35.1604 31.3128 34.9841 31.3128 34.8138 31.2759C34.5276 31.1395 34.2278 31.0323 33.9193 30.9561C33.7451 30.899 33.4198 31.0703 33.234 30.9561C32.6798 30.5302 32.1908 30.0282 31.782 29.4655C31.5729 29.1457 31.2011 29.0429 31.0966 28.7173C31.0966 28.5803 31.1431 28.3747 30.9688 28.3233C30.6145 28.2205 30.7597 27.9978 30.7365 27.8036C30.6651 27.6129 30.5588 27.4368 30.4229 27.2838C30.3125 27.0954 30.4519 26.8098 30.3416 26.5528C30.3416 26.4843 30.4113 26.4101 30.4055 26.3415C30.2719 25.9475 30.4809 25.5248 30.4461 25.1993C30.4319 24.9671 30.4634 24.7344 30.539 24.5139C30.7401 24.0285 31.0057 23.5714 31.3289 23.1547C31.3289 23.0862 31.3289 22.9548 31.2999 22.8863C31.2708 22.8177 31.4625 22.8063 31.538 22.7264C31.6553 22.3963 31.8238 22.0862 32.0375 21.8069C32.406 21.4353 32.7937 21.0826 33.1991 20.7503C33.4944 20.5416 33.755 20.2893 33.9716 20.0021C34.0529 19.9279 34.3201 20.0364 34.3956 19.9621C34.6279 19.7394 34.9764 19.7737 35.2145 19.6138C35.4527 19.4539 35.412 19.8022 35.656 19.7109C35.8024 19.6831 35.9411 19.6247 36.0625 19.5395C36.3123 19.4482 36.5911 19.6252 36.8524 19.6652C37.1333 19.6384 37.4148 19.7091 37.6481 19.8651C38.014 20.0992 38.862 20.025 39.0014 20.4876C39.2163 20.8017 39.5822 21.0416 39.7913 21.3557Z" fill="white"/>
<path d="M54.1372 26.6567C54.1446 26.4631 54.1171 26.2698 54.0558 26.0856C54.0558 25.88 54.2011 25.6458 54.1256 25.3602C54.0791 25.2859 53.9687 25.1946 53.9862 25.126C54.1129 24.6981 54.1524 24.2497 54.1023 23.8066C54.0762 23.7006 54.0309 23.6 53.9687 23.5096L54.0268 23.1841C54.0127 22.8188 53.932 22.459 53.7887 22.1217C53.7538 21.9789 53.6435 21.8875 53.6202 21.6819C53.5738 21.6019 53.4634 21.5106 53.475 21.4477C53.5854 20.8766 53.295 20.3968 53.2079 19.8371C53.1207 19.2773 52.4644 18.8032 52.2728 18.1578C52.2728 18.0893 52.4819 18.1178 52.5399 18.1578C53.083 18.558 53.4883 19.1121 53.7016 19.7456C53.7887 19.9684 53.748 20.1626 53.8468 20.3168C54.1949 20.8237 54.3866 21.4188 54.3985 22.0303C54.3985 22.0988 54.5205 22.0303 54.567 22.1388C54.6134 22.2473 54.5321 22.333 54.567 22.4073C54.8748 22.7443 54.6831 23.1041 54.747 23.4582C54.7739 23.5648 54.817 23.6669 54.8748 23.7609C54.8748 23.8238 54.7122 23.9894 54.6947 24.0522C54.8213 24.2123 54.9126 24.3965 54.9626 24.5933C55.0126 24.79 55.0203 24.9948 54.9851 25.1946C55.2755 25.3259 55.142 25.7029 55.2117 25.9885C55.2312 26.0172 55.2569 26.0413 55.2871 26.0591C55.3172 26.0769 55.3509 26.0879 55.3859 26.0913C55.4718 25.9819 55.5367 25.858 55.5776 25.7257C55.6315 25.2312 55.6178 24.7317 55.5369 24.2407C55.4928 24.1499 55.4739 24.0493 55.482 23.949C55.4902 23.8487 55.5252 23.7523 55.5834 23.6695C55.4672 23.641 55.4266 23.4982 55.3801 23.4239C55.1652 22.5672 55.0723 21.6077 54.7993 20.7338C54.8385 20.7043 54.8687 20.6648 54.8864 20.6195C54.7935 19.8485 54.2011 19.1288 53.9223 18.3349C53.8758 18.1978 53.6435 18.0321 53.5389 17.8836C53.5389 17.8836 53.5389 17.8208 53.5389 17.7523C53.8385 17.8453 54.0888 18.0505 54.2359 18.3235C54.5873 18.7451 54.8516 19.2302 55.0142 19.7514C55.2105 20.1849 55.3811 20.6293 55.5253 21.0822C55.6277 21.3393 55.7687 21.58 55.9435 21.7961C55.9926 22 56.0141 22.2093 56.0074 22.4187C56.0887 22.9099 56.2455 23.3954 56.3384 23.8866C56.4771 24.233 56.4934 24.6152 56.3849 24.9718C56.2223 25.543 56.6056 26.1655 56.7624 26.6853C56.7877 26.7951 56.7905 26.9087 56.7705 27.0195C56.7506 27.1303 56.7083 27.2362 56.6463 27.3307C56.6463 27.3993 56.7392 27.4907 56.7276 27.5535C56.6172 27.7991 56.7276 28.0218 56.6521 28.2788C56.5824 28.3302 56.7392 28.4959 56.6521 28.6101C56.5649 28.7244 56.5185 28.6558 56.443 28.7072C56.35 28.89 56.443 29.107 56.3965 29.2784C56.2049 29.6439 56.3036 30.1351 55.9435 30.4207C55.8099 30.4607 55.7925 30.5235 55.7228 30.5749C55.7867 30.5749 55.8331 30.6663 55.8796 30.7463C55.8099 30.7977 55.746 30.7863 55.6763 30.8377C55.6066 30.8891 55.9086 31.1232 55.9551 31.2032C55.8622 31.7229 55.4672 32.1742 55.4788 32.7853C55.4788 32.9167 55.415 33.1052 55.3975 33.2365C55.2698 33.5507 55.0432 33.7677 54.9213 34.0819C54.9213 34.2132 54.6483 34.2247 54.625 34.356C54.4682 34.5217 54.4798 34.7958 54.3753 35.0414C54.2882 35.1557 54.1081 35.1214 53.9629 35.2242C53.7945 35.4527 53.8177 35.664 53.7132 35.9096C53.6086 36.1552 53.3124 36.5265 53.1324 36.8235C52.9063 37.2601 52.5944 37.6484 52.2147 37.9658C52.1192 37.9637 52.0256 37.9917 51.9475 38.0458C51.7844 38.4067 51.4933 38.697 51.1286 38.8625C51.0647 38.8625 50.9776 39.131 50.9079 39.1824C50.6618 39.4131 50.3998 39.6268 50.1238 39.8221C49.9902 39.8621 49.9205 39.9077 49.7811 39.6793C49.3408 40.4145 48.7681 41.0648 48.0909 41.5984C47.7541 41.7926 47.4114 41.7697 47.1849 41.9868C46.5405 42.5589 45.8575 43.0875 45.1404 43.5689C45.0824 43.5689 44.8617 43.883 44.8617 43.883C44.6235 43.883 44.7629 43.923 44.5364 43.883C44.5364 43.883 44.5364 44.2543 44.2286 44.3114C43.5955 44.4371 43.4271 45.1624 43.3748 45.4537C43.3748 45.6022 43.247 45.4994 43.1715 45.5623C43.096 45.6251 43.1715 45.7108 43.0786 45.7736C42.7967 45.9901 42.5465 46.2438 42.3351 46.5275C42.2654 46.5846 42.219 46.499 42.1435 46.5618C41.9155 46.8035 41.7344 47.0842 41.6091 47.39C41.3636 47.9853 41.0267 48.5401 40.6101 49.0349C40.5172 49.1435 40.8366 49.5661 40.8134 49.7089C40.7902 49.8517 40.5346 49.9374 40.4475 50.1373C40.3662 50.6342 40.343 51.1882 40.2558 51.7137C40.1813 52.1591 40.2171 52.6157 40.3604 53.0445C40.3923 53.4609 40.3923 53.879 40.3604 54.2953C40.3894 54.5981 40.5927 54.9294 40.5637 55.2207C40.5637 55.6662 40.4707 55.609 40.5637 55.986C40.5209 56.1733 40.5092 56.3662 40.5288 56.5572C40.5288 56.8485 40.4591 57.037 40.4475 57.3283C40.3778 57.4025 40.25 57.5396 40.2442 57.6138C40.1402 58.3427 39.7658 59.0079 39.193 59.4815C38.8793 59.6814 38.6122 59.9899 38.2404 59.9613C37.8996 60.0815 37.5661 60.2207 37.2414 60.3783C36.7602 60.5137 36.2545 60.543 35.7604 60.4639C35.4764 60.4221 35.2041 60.3234 34.9604 60.1741C34.7167 60.0248 34.5066 59.828 34.3432 59.5958C34.1109 59.3387 33.7101 59.4358 33.5591 59.0246C33.5127 58.8704 33.1874 58.7904 33.1293 58.7105C32.8644 58.4353 32.6361 58.1282 32.4498 57.7966C32.2988 57.4082 32.4091 57.1398 32.2291 56.7571C32.0432 56.5286 31.9619 56.363 31.776 56.1288C31.5902 55.8946 31.8341 55.3749 31.6483 55.0664C31.508 54.9707 31.4006 54.8352 31.3404 54.678C31.2755 54.3174 31.1823 53.9622 31.0616 53.6157C30.9879 52.9027 31.0016 52.1836 31.1023 51.4738C31.1023 51.3939 30.899 51.291 30.9106 51.2168C31.0066 50.6807 31.0648 50.1387 31.0849 49.5947C31.143 49.2977 31.1139 49.0578 31.3927 48.8007C31.3927 48.8007 31.2591 48.6979 31.2765 48.6237C31.3957 48.2245 31.4773 47.8153 31.5205 47.4014C31.5205 47.3272 31.6947 47.2815 31.7122 47.2072C31.6282 46.7779 31.6164 46.338 31.6773 45.905C31.7063 45.7565 32.1013 45.5337 32.1884 45.3966C32.1659 45.2163 32.1983 45.0334 32.2813 44.8711C32.3162 44.8083 32.4207 44.8312 32.4962 44.7683C32.5717 44.7055 32.4614 44.6027 32.4962 44.5285C32.5311 44.3057 32.9202 44.1401 32.9493 43.9916C33.108 43.5755 33.3378 43.1892 33.6288 42.8492C33.6979 42.6442 33.7999 42.4514 33.9308 42.2781C34.0005 42.2267 34.0354 42.2781 34.047 42.2095C34.0586 42.141 34.047 42.0039 34.047 41.9411C34.198 41.7698 34.4129 41.6155 34.4478 41.4213C34.534 41.2135 34.6536 41.0207 34.802 40.8502C35.0928 40.664 35.3435 40.4233 35.5397 40.1419C35.6907 39.9706 35.8649 40.0105 36.0217 39.8392C36.1928 39.5931 36.3424 39.3333 36.469 39.0624C36.8327 38.6542 37.2463 38.2916 37.7003 37.9829C38.0668 37.7721 38.4449 37.5814 38.8329 37.4117C39.1872 37.1547 39.4137 36.6635 39.7389 36.4693C39.948 36.3094 40.1919 36.3037 40.4068 36.1438C40.6217 35.9838 40.796 35.6926 41.1096 35.624C41.4066 35.5829 41.6961 35.5002 41.9692 35.3784C42.3758 35.1328 42.2074 35.0643 42.6197 34.8072C42.9676 34.5735 43.3325 34.3654 43.7116 34.1847C43.7532 34.1583 43.7891 34.1239 43.817 34.0837C43.8449 34.0435 43.8644 33.9982 43.8743 33.9505C44.2163 33.6053 44.6076 33.311 45.0359 33.0766C45.1637 33.0366 45.3147 33.2023 45.4657 33.0366C45.6167 32.871 45.3844 32.8139 45.4657 32.6996C45.6683 32.4603 45.8876 32.2351 46.122 32.0257C46.1917 31.9743 46.3659 32.0771 46.4937 32.0257C46.6215 31.9743 46.5867 31.8429 46.6622 31.7972C46.7377 31.7515 46.5867 31.5059 46.6622 31.3917C46.7377 31.2775 46.8538 31.0318 46.9874 30.9919C47.121 30.9519 47.4695 30.7577 47.4288 30.6149C47.442 30.4797 47.4886 30.3497 47.5645 30.2362C47.6404 30.1227 47.7434 30.0292 47.8644 29.9638L47.8993 29.7696C48.0561 29.604 48.2013 29.5011 48.3581 29.3298C48.5149 29.1584 48.4511 28.81 48.5498 28.6273C48.8814 28.349 49.1235 27.9818 49.2468 27.5706C49.2177 27.3593 49.0841 27.0622 49.1829 26.8795C49.2816 26.6967 49.5313 26.6853 49.5546 26.5596C49.5526 26.279 49.5195 25.9994 49.4559 25.7257C49.4965 25.5316 49.7114 25.3773 49.6882 25.1546C49.6917 24.6073 49.6665 24.0601 49.6127 23.5153C49.8043 23.5153 49.8334 23.3611 49.8508 23.2298C49.7432 22.8133 49.6113 22.4033 49.4559 22.0018C49.4559 21.7276 49.6708 21.5106 49.6591 21.2364C49.5871 20.983 49.4319 20.7601 49.2177 20.6024C49.0144 20.3568 49.1422 19.9798 49.0725 19.6943C49.0028 19.4087 48.7473 19.0831 48.7008 18.6719C48.6718 18.4605 48.422 18.4777 48.3349 18.2549C48.2506 17.959 48.2038 17.654 48.1955 17.3468C48.1548 17.2097 47.9632 17.2325 47.8586 17.1411C47.6147 16.7527 47.7018 15.9588 47.1675 15.7818C47.2197 15.519 46.9816 15.4676 46.8945 15.2506C47.0613 15.2442 47.2259 15.2893 47.3655 15.3794C47.505 15.4695 47.6124 15.6002 47.6728 15.7532C47.725 15.8332 47.9051 15.8731 47.9632 15.8846C48.12 16.0502 48.1084 16.4558 48.2768 16.5586C48.4452 16.6614 48.817 16.6728 48.8983 16.8955C49.0203 17.2554 49.299 17.4667 49.4326 17.7523C49.4301 17.8518 49.4542 17.9503 49.5023 18.0379C49.7172 18.2206 49.7405 18.4263 49.8973 18.609C50.2574 19.026 50.6233 19.4372 50.4781 20.0084C50.3677 20.2597 50.693 20.1912 50.7917 20.3454C51.0298 20.7338 50.9311 21.2535 51.2447 21.5905C51.2674 22.2331 51.4277 22.8637 51.7152 23.4411C51.3667 23.978 51.5642 24.909 51.8372 25.4402C51.8372 25.4402 52.0288 25.4401 52.0463 25.3488C52.1043 25.0232 52.7026 24.9147 52.6271 24.7776C52.471 24.3048 52.3696 23.8163 52.325 23.3211C52.3887 22.8033 52.3887 22.2797 52.325 21.7619L52.1798 21.5277C52.0879 21.2399 52.0601 20.936 52.0985 20.6367C52.0637 20.4939 51.9533 20.4025 51.9185 20.2597L51.9649 20.0027C52.0985 19.9627 52.267 20.0655 52.3831 20.0941C52.4993 20.1226 52.3831 20.3625 52.447 20.4425C52.6387 20.7509 52.9233 20.8823 52.9872 21.2307L52.9407 21.4934C52.9872 21.9046 53.2369 22.2302 53.3008 22.5786C53.3008 22.79 53.144 23.0869 53.2311 23.3097C53.4659 23.8494 53.5501 24.4409 53.475 25.0232C53.4228 25.2802 53.7538 25.4858 53.6609 25.6686C53.568 25.8514 53.6899 25.8743 53.5912 26.057C53.5912 26.1256 53.446 26.1598 53.4344 26.2284C53.6144 26.5996 53.3415 27.1708 53.2834 27.4963C53.2834 27.5592 53.4867 27.6277 53.5331 27.3935C53.5796 27.1594 53.8061 27.2507 53.9397 27.2108C54.0089 27.1363 54.0621 27.0488 54.096 26.9536C54.1299 26.8584 54.1439 26.7574 54.1372 26.6567ZM55.4324 27.9533C55.5044 27.6518 55.5415 27.3433 55.5427 27.0337C55.4208 26.6682 55.1478 27.0337 54.9619 27.0337C55.0203 27.4113 54.9488 27.7973 54.7586 28.1303C54.6773 28.2503 54.6134 28.5759 54.8051 28.5473C55.1303 28.6387 55.444 28.3531 55.4556 27.9533H55.4324ZM54.9154 29.7296C54.9531 29.6645 54.9667 29.5885 54.954 29.5147C54.9413 29.4408 54.903 29.3735 54.8458 29.3241C54.6831 29.2213 54.4682 29.3755 54.3695 29.5582C54.2707 29.741 54.3695 30.0266 54.6018 30.0095C54.6831 30.038 54.8574 29.8438 54.9387 29.7296H54.9154Z" fill="white"/>
<path d="M51.4075 18.6716C51.7269 18.9059 51.8489 19.3059 52.1045 19.6316V19.763C51.6631 20.1345 51.2739 19.5116 51.1519 19.1516C51.0009 18.7645 50.7672 18.4137 50.4666 18.1231C50.4666 18.0602 50.4666 17.9974 50.5072 17.9288C50.3504 17.7574 50.1413 17.5174 50.3504 17.426C50.4317 17.306 50.5769 17.5402 50.7454 17.6431C50.9719 17.9688 51.0183 18.3802 51.4075 18.6716Z" fill="white"/>
<path d="M53.2253 17.0015C53.2253 17.0699 53.1207 17.1837 53.1091 17.2464C52.8792 17.0464 52.6832 16.8119 52.5283 16.5517C52.476 16.5517 52.3541 16.5004 52.3076 16.4207C52.2611 16.341 52.2611 16.341 52.2785 16.2783C52.4702 16.2783 52.6212 16.4321 52.7839 16.5403C52.8419 16.5403 52.9174 16.5403 52.9755 16.5403C53.0485 16.595 53.1087 16.6646 53.1518 16.7442C53.1949 16.8238 53.2199 16.9116 53.2253 17.0015Z" fill="white"/>
<path d="M26.101 28.9355C26.1704 28.9885 26.2345 29.0477 26.2927 29.1125C26.3384 29.1391 26.3905 29.1532 26.4437 29.1532C26.4968 29.1532 26.549 29.1391 26.5947 29.1125C26.6934 29.1125 26.7805 29.3752 26.8851 29.3809C26.9896 29.3866 27.1174 29.7007 27.2568 29.8207C27.3962 29.9406 27.4543 29.9749 27.553 30.0377C27.6587 30.2037 27.7813 30.3587 27.9189 30.5003C28.0118 30.6202 28.1687 30.5803 28.2674 30.586C28.4649 30.6545 28.5462 30.9343 28.6798 31.1057C28.7321 31.1057 28.8192 31.2827 28.8134 31.3341C28.9186 31.425 29.0313 31.5071 29.1502 31.5797C29.1909 31.6368 29.1909 31.7453 29.2316 31.8025C29.6468 32.3014 30.0346 32.8218 30.3932 33.3616C30.4135 33.4169 30.4271 33.4744 30.4338 33.5329C30.7501 33.9333 31.0374 34.3551 31.2934 34.7951C31.3806 34.9664 31.4619 35.2463 31.5432 35.469C31.6419 35.5832 31.7348 35.6518 31.822 35.766C31.9781 36.0022 32.0792 36.2693 32.1182 36.5484C32.1182 36.6569 32.0427 36.9768 31.851 36.7997C31.6593 36.6227 31.6419 36.2286 31.4038 36.0572C31.3913 35.965 31.3532 35.8781 31.2934 35.8059C31.2005 35.6917 31.0263 35.6974 30.9856 35.5375C30.9449 35.3776 30.8113 35.2405 30.7184 35.1263C30.4803 34.7894 30.1376 34.6637 29.8472 34.3268C29.8193 34.3221 29.7906 34.3238 29.7634 34.3317C29.7362 34.3396 29.7113 34.3536 29.6904 34.3725C29.6381 34.481 29.4813 34.6352 29.6265 34.8065C29.7717 34.9778 29.9169 35.1435 30.1608 35.2634C30.3061 35.3776 30.3467 35.7089 30.4338 35.983C30.522 36.1027 30.6373 36.2005 30.7707 36.2685C30.9217 36.3828 30.8636 36.5541 30.9972 36.7311C30.9972 36.7883 30.9449 36.834 30.9391 36.8911C31.0263 37.0624 31.2295 37.0224 31.3689 37.1938C31.4793 37.0967 31.6245 37.1938 31.7116 37.3308C31.549 37.485 31.5896 37.5935 31.5258 37.7535C31.3573 38.0105 31.7406 38.2617 31.9846 38.3874C32.1356 38.3874 32.1124 38.673 32.2576 38.7929C32.4028 38.9128 32.5944 38.9813 32.728 39.2098C32.7745 39.3183 32.6699 39.3697 32.6119 39.4725C32.5538 39.5753 32.7919 39.7067 32.8848 39.7638C32.9758 39.8398 33.0407 39.9415 33.0707 40.055C32.9139 40.095 32.6177 39.8951 32.4899 39.878C32.3621 39.8609 32.2169 39.621 32.0252 39.581C31.9555 39.581 31.9091 39.7238 31.8394 39.7124L31.549 39.6553C31.4444 39.6553 31.1889 39.364 31.0785 39.3469C30.9682 39.3297 30.7997 39.5525 30.6778 39.5296C30.4654 39.5143 30.2582 39.4581 30.0679 39.364C29.9043 39.3002 29.7452 39.2257 29.5916 39.1413C29.4929 39.0899 29.5161 38.9585 29.429 38.9014C29.3419 38.8443 29.1386 38.8443 29.0457 38.7872C28.6856 38.5702 28.3429 38.079 28.0351 37.9191C27.8318 37.8163 27.6576 37.7135 27.4543 37.605C27.3381 37.5364 27.2626 37.3822 27.1232 37.3422C26.6934 37.1995 26.3565 36.931 25.8687 36.7711C24.951 36.5141 24.1901 37.0338 23.4409 37.4165C23.39 37.3995 23.3349 37.3995 23.2841 37.4165C23.1093 37.5379 22.9269 37.6486 22.7381 37.7477C22.4762 37.8917 22.2045 38.0176 21.925 38.1247C21.8437 38.1761 21.8379 38.3189 21.7565 38.3646C21.6752 38.4102 21.4197 38.4502 21.2977 38.5245C21.1757 38.5987 21.1757 38.7186 21.0712 38.7929C20.8527 38.9699 20.6128 39.1195 20.3568 39.2383C19.7749 39.3868 19.1829 39.4937 18.5853 39.5582C18.2252 39.5582 18.0045 39.8494 17.4528 39.8494C16.6579 39.9269 15.8589 39.7485 15.176 39.3411C15.0308 39.2155 15.0076 38.89 14.9146 38.8272C14.6242 38.6444 14.6533 38.256 14.5719 37.9876C14.4732 37.9248 14.2757 37.9077 14.2874 37.742C14.4053 37.0053 14.729 36.3153 15.2224 35.7488C15.3328 35.5375 15.5942 35.4462 15.6174 35.1777C15.8359 34.8733 16.0745 34.5833 16.3318 34.3096C16.3899 34.2068 16.3027 34.0355 16.3608 33.9327C16.7732 33.1446 17.5224 32.6077 18.1033 31.8995C18.2659 31.7453 18.382 31.5397 18.6318 31.5055C18.7363 31.5055 18.8351 31.5055 18.8932 31.4141C19.0003 31.1999 19.1729 31.0242 19.3869 30.9115C19.9677 30.5175 20.4555 29.9349 21.1293 29.8264C21.2338 29.775 21.2977 29.6722 21.3964 29.6265C21.4952 29.5808 21.6985 29.6265 21.803 29.6265C22.2967 29.4095 22.7497 28.9412 23.255 28.8669C23.3596 28.8269 23.4177 28.7184 23.4699 28.7241C23.9172 28.7641 24.4515 28.37 24.8755 28.7812C25.2889 28.6746 25.7282 28.7299 26.101 28.9355ZM29.5568 33.6871C29.5539 33.632 29.5539 33.5767 29.5568 33.5215C29.3593 33.4016 29.2722 33.076 29.0225 33.0075C28.9702 33.0075 28.8714 33.0589 28.8656 33.1103C28.8779 33.4048 28.9702 33.6908 29.1328 33.9384C29.1909 33.7214 29.3419 33.7271 29.4407 33.8927C29.4961 33.8347 29.536 33.7641 29.5568 33.6871Z" fill="white"/>
<path d="M13.7649 61.0067C13.7649 61.1866 13.7106 61.3625 13.6089 61.512C13.5071 61.6615 13.3626 61.778 13.1935 61.8466C13.0244 61.9151 12.8384 61.9328 12.6591 61.8973C12.4798 61.8618 12.3153 61.7747 12.1864 61.647C12.0575 61.5194 11.97 61.357 11.935 61.1804C11.9 61.0038 11.9192 60.8209 11.9899 60.655C12.0607 60.4891 12.18 60.3476 12.3326 60.2485C12.4852 60.1493 12.6644 60.097 12.8473 60.0982C13.0912 60.0997 13.3246 60.1961 13.4965 60.3663C13.6684 60.5365 13.7649 60.7667 13.7649 61.0067Z" fill="white"/>
<path d="M62.7566 61.0066C62.7566 61.1863 62.7025 61.362 62.601 61.5114C62.4995 61.6608 62.3553 61.7772 62.1865 61.846C62.0178 61.9148 61.8321 61.9327 61.653 61.8977C61.4739 61.8626 61.3093 61.7761 61.1801 61.6491C61.051 61.522 60.963 61.3601 60.9274 61.1839C60.8918 61.0077 60.9101 60.825 60.98 60.659C61.0499 60.493 61.1682 60.3511 61.3201 60.2512C61.472 60.1514 61.6505 60.0981 61.8331 60.0981C62.0781 60.0981 62.313 60.1939 62.4861 60.3642C62.6593 60.5346 62.7566 60.7657 62.7566 61.0066Z" fill="white"/>
</g>
<defs>
<clipPath id="clip0_340_230">
<rect width="74.6397" height="74.6397" fill="white" transform="translate(0.0114746)"/>
</clipPath>
</defs>
</svg>
