<svg width="76" height="76" viewBox="0 0 76 76" fill="none" xmlns="http://www.w3.org/2000/svg">
<g style="mix-blend-mode:screen">
<circle cx="37.6646" cy="37.521" r="36.521" stroke="white" stroke-width="2"/>
<circle cx="37.6646" cy="37.5206" r="22.877" stroke="white" stroke-width="2"/>
<path d="M46.8977 37.5206C46.8977 44.0118 45.7681 49.8411 43.9813 54.0103C43.0872 56.0966 42.0482 57.7211 40.9454 58.8095C39.8469 59.8936 38.7394 60.3976 37.6646 60.3976C36.5899 60.3976 35.4824 59.8936 34.3839 58.8095C33.2811 57.7211 32.2421 56.0966 31.348 54.0103C29.5612 49.8411 28.4316 44.0118 28.4316 37.5206C28.4316 31.0293 29.5612 25.2 31.348 21.0309C32.2421 18.9446 33.2811 17.3201 34.3839 16.2317C35.4824 15.1475 36.5899 14.6436 37.6646 14.6436C38.7394 14.6436 39.8469 15.1475 40.9454 16.2317C42.0482 17.3201 43.0872 18.9446 43.9813 21.0309C45.7681 25.2 46.8977 31.0293 46.8977 37.5206Z" stroke="white" stroke-width="2"/>
<path d="M37.6646 28.2889C44.1559 28.2889 49.9852 29.4184 54.1543 31.2052C56.2406 32.0993 57.8651 33.1383 58.9535 34.2412C60.0377 35.3397 60.5416 36.4472 60.5416 37.5219C60.5416 38.5966 60.0377 39.7041 58.9535 40.8026C57.8651 41.9054 56.2406 42.9444 54.1543 43.8386C49.9852 45.6253 44.1559 46.7549 37.6646 46.7549C31.1733 46.7549 25.3441 45.6253 21.1749 43.8386C19.0886 42.9444 17.4641 41.9054 16.3757 40.8026C15.2916 39.7041 14.7876 38.5966 14.7876 37.5219C14.7876 36.4472 15.2916 35.3397 16.3757 34.2412C17.4641 33.1383 19.0886 32.0993 21.1749 31.2052C25.3441 29.4184 31.1733 28.2889 37.6646 28.2889Z" stroke="white" stroke-width="2"/>
</g>
</svg>
