<svg width="24" height="24" viewBox="0 0 24 24" fill="none" xmlns="http://www.w3.org/2000/svg">
<path d="M2 12.1387H21.4308" stroke="#0C81E4" stroke-width="1.5" stroke-linejoin="round"/>
<path d="M5.98334 17.0446C6.27624 17.3375 6.75111 17.3375 7.044 17.0446C7.3369 16.7517 7.3369 16.2769 7.044 15.984L5.98334 17.0446ZM1.99945 12.0001L1.46912 11.4697C1.17622 11.7626 1.17622 12.2375 1.46912 12.5304L1.99945 12.0001ZM7.044 8.01617C7.3369 7.72328 7.3369 7.2484 7.044 6.95551C6.75111 6.66262 6.27624 6.66262 5.98334 6.95551L7.044 8.01617ZM7.044 15.984L2.52978 11.4697L1.46912 12.5304L5.98334 17.0446L7.044 15.984ZM2.52978 12.5304L7.044 8.01617L5.98334 6.95551L1.46912 11.4697L2.52978 12.5304Z" fill="#0C81E4"/>
<path d="M18.0167 17.0446C17.7238 17.3375 17.2489 17.3375 16.956 17.0446C16.6631 16.7517 16.6631 16.2769 16.956 15.984L18.0167 17.0446ZM22.0006 12.0001L22.5309 11.4697C22.8238 11.7626 22.8238 12.2375 22.5309 12.5304L22.0006 12.0001ZM16.956 8.01617C16.6631 7.72328 16.6631 7.2484 16.956 6.95551C17.2489 6.66262 17.7238 6.66262 18.0167 6.95551L16.956 8.01617ZM16.956 15.984L21.4702 11.4697L22.5309 12.5304L18.0167 17.0446L16.956 15.984ZM21.4702 12.5304L16.956 8.01617L18.0167 6.95551L22.5309 11.4697L21.4702 12.5304Z" fill="#0C81E4"/>
</svg>
