<svg width="100" height="16" viewBox="0 0 100 16" fill="none" xmlns="http://www.w3.org/2000/svg">
<g clip-path="url(#clip0_1210_11328)">
<path d="M2.87306 2.23657H0V15.3035H2.87306V2.23657Z" fill="white"/>
<path d="M21.288 7.60561C19.0306 7.01508 18.4694 6.73029 18.4694 5.85916V5.82146C18.4694 5.1723 19.0474 4.66135 20.1489 4.66135C21.2504 4.66135 22.3895 5.15555 23.5454 5.97223L25.1327 3.64363C23.8093 2.55891 22.0922 1.79248 20.1866 1.79248C17.5187 1.79248 15.3828 3.32952 15.3828 5.9136V6.12301C15.3828 8.43067 17.3135 9.50283 19.9478 10.1855C22.1299 10.7551 22.4858 11.3665 22.4858 11.9696V12.0073C22.4858 12.5518 21.866 13.0962 20.6933 13.0962C19.1982 13.0962 17.9669 12.468 16.5178 11.3833L14.8174 13.5276C16.6643 15.0521 18.6621 15.7515 20.6389 15.7515C23.4575 15.7515 25.673 14.382 25.673 11.7435V11.7058C25.673 9.38975 23.9391 8.30921 21.2922 7.60561H21.288Z" fill="white"/>
<path d="M30.7914 10.0014H36.9521V7.44661H30.7914V4.79552H37.7897V2.23657H27.9351V15.3035H37.8819V12.7488H30.7914V10.0014Z" fill="white"/>
<path d="M48.0629 2.11919V0H45.4998V2.12757C42.1534 2.70134 39.8374 5.4697 39.8374 8.76995V8.80764C39.8374 12.5225 42.7314 15.5254 46.7604 15.5254C50.7894 15.5254 53.7252 12.4848 53.7252 8.76995V8.73225C53.7252 5.41944 51.4218 2.67203 48.0629 2.11919ZM50.7182 8.80764C50.7182 11.0483 49.1141 12.8785 46.7981 12.8785C44.482 12.8785 42.8403 11.0106 42.8403 8.76995V8.73225C42.8403 6.4916 44.4443 4.66558 46.7604 4.66558C49.0764 4.66558 50.7182 6.53348 50.7182 8.76995V8.80764Z" fill="white"/>
<path d="M64.4678 9.72076C64.4678 11.7939 63.404 12.8577 61.6492 12.8577C59.8944 12.8577 58.8306 11.7562 58.8306 9.62862V2.23657H55.9575V9.70401C55.9575 13.5487 58.106 15.5088 61.6115 15.5088C65.117 15.5088 67.3409 13.5655 67.3409 9.60768V2.23657H64.4678V9.72076Z" fill="white"/>
<path d="M73.1499 2.23657H70.2769V15.3035H79.6625V12.6901H73.1499V2.23657Z" fill="white"/>
<path d="M97.1268 2.23657V9.72076C97.1268 11.7939 96.063 12.8577 94.3082 12.8577C92.5533 12.8577 91.4895 11.7562 91.4895 9.62862V2.23657H88.6123V9.70401C88.6123 13.5487 90.7608 15.5088 94.2705 15.5088C97.7801 15.5088 99.9998 13.5655 99.9998 9.60768V2.23657H97.1226H97.1268Z" fill="white"/>
<path d="M11.1196 8.38463C11.1196 9.4861 10.2276 10.3782 9.12608 10.3782C8.0246 10.3782 7.13672 9.4861 7.13672 8.38463C7.13672 7.28315 8.02879 6.39526 9.12608 6.39526C10.2234 6.39526 11.1196 7.28734 11.1196 8.38463Z" fill="#C40E38"/>
<path d="M84.353 8.38463C84.353 9.4861 83.461 10.3782 82.3637 10.3782C81.2664 10.3782 80.3701 9.4861 80.3701 8.38463C80.3701 7.28315 81.2622 6.39526 82.3637 6.39526C83.4651 6.39526 84.353 7.28734 84.353 8.38463Z" fill="#5698D2"/>
</g>
<defs>
<clipPath id="clip0_1210_11328">
<rect width="100" height="15.7516" fill="white"/>
</clipPath>
</defs>
</svg>
